# xmcd
#
# Track frame offsets: 
#        150
#        11145
#        22688
#        37913
#        51608
#        65533
#        76453
#        92113
#        105328
#        118930
#        134573
#        148260
#        161738
#        176163
#        189628
#        203100
#
# Disc length: 2889 seconds
#
# Revision: 0
# Processed by: cddbd v1.5.2PL0 Copyright (c) Steve Scherf et al.
# Submitted via: ExactAudioCopyFreeDBPlugin 1.0
#
DISCID=e70b4710
DTITLE=Jelly Roll Morton - The Complete Jelly Roll Morton Vol.5
DYEAR=1929
DGENRE=Jazz
TTITLE0=JERSEY JOE 1
TTITLE1=JERSEY JOE 2
TTITLE2=MISSISSIPY MILDRED 1
TTITLE3=MISSISSIPY MILDRED 2
TTITLE4=MINT JULEP
TTITLE5=YOU OUGHTA SEE MY GAL
TTITLE6=FUTURISTIC BLUES
TTITLE7=KEEP YOUR BUSINESS TO YOURSELF
TTITLE8=SHE'N GOT WHAT I NEED
TTITLE9=I HATE A MAN LIKE YOU
TTITLE10=DON'T TELL ME NOTHIN''BOUT MY MAN
TTITLE11=SMILIN' THE BLUES AWAY
TTITLE12=TURTLE TWIST
TTITLE13=MY LITTLE DIXIE HOME
TTITLE14=THAT'S LIKE IT OUGHT TO BE
TTITLE15=EACH DAY
EXTD=
EXTT0=
EXTT1=
EXTT2=
EXTT3=
EXTT4=
EXTT5=
EXTT6=
EXTT7=
EXTT8=
EXTT9=
EXTT10=
EXTT11=
EXTT12=
EXTT13=
EXTT14=
EXTT15=
PLAYORDER=
